
        <svg xmlns="http://www.w3.org/2000/svg" xmlns:xlink="http://www.w3.org/1999/xlink" version="1.1" width="3200" 
        height="1355.1724313319414" viewBox="0 0 3200 1355.1724313319414">
			
			<g transform="scale(10) translate(10, 10)">
				<defs id="SvgjsDefs1001"><linearGradient id="SvgjsLinearGradient1011"><stop id="SvgjsStop1012" stop-color="#00ff8f" offset="0"></stop><stop id="SvgjsStop1013" stop-color="#00a1ff" offset="1"></stop></linearGradient></defs><g id="SvgjsG1007" featureKey="HKaMnE-0" transform="matrix(0.847520424691326,0,0,0.847520424691326,3.4574387259260213,31.134714054321435)" fill="#737373"><g xmlns="http://www.w3.org/2000/svg"><circle cx="50.319" cy="18.742" r="4.742"></circle><path d="M54.342,24.32h-8.334c-3.913,0-4.172,3.689-4.172,3.689v9.775h16.966V28.01C58.802,28.01,58.255,24.32,54.342,24.32z"></path></g><path xmlns="http://www.w3.org/2000/svg" d="M50.318,40.106c-14.823,0-26.839,5.287-26.839,11.809c0,6.521,12.016,11.808,26.839,11.808  c14.824,0,26.84-5.287,26.84-11.808C77.158,45.394,65.142,40.106,50.318,40.106z M50.319,63.126c-2.619,0-4.742-2.123-4.742-4.742  c0-2.618,2.123-4.741,4.742-4.741s4.742,2.123,4.742,4.741C55.061,61.003,52.938,63.126,50.319,63.126z"></path><path xmlns="http://www.w3.org/2000/svg" d="M54.342,63.963h-8.334c-3.913,0-4.172,3.689-4.172,3.689v9.775h16.966v-9.775C58.802,67.652,58.255,63.963,54.342,63.963z"></path><g xmlns="http://www.w3.org/2000/svg"><circle cx="11.483" cy="41.113" r="4.742"></circle><path d="M15.506,46.691H7.172C3.259,46.691,3,50.38,3,50.38v9.776h16.966V50.38C19.966,50.38,19.419,46.691,15.506,46.691z"></path></g><g xmlns="http://www.w3.org/2000/svg"><circle cx="88.91" cy="41.113" r="4.742"></circle><path d="M92.933,46.691H84.6c-3.914,0-4.173,3.688-4.173,3.688v9.776h16.966V50.38C97.393,50.38,96.847,46.691,92.933,46.691z"></path></g></g><g id="SvgjsG1008" featureKey="J3GnXt-0" transform="matrix(4.597701149425287,0,0,4.597701149425287,99.63218316264536,2.4138018728672783)" fill="url(#SvgjsLinearGradient1011)"><path d="M8.72 17.52 l-4.5 0 l-0.88 2.48 l-3.26 0 l4.9 -12.24 l3 0 l4.9 12.24 l-3.28 0 z M5.2 14.74 l2.54 0 l-1.26 -3.56 z M16.96 15 l0 5 l-3 0 l0 -4.98 c0 -3.32 2.44 -5.12 5.52 -5.12 c0.1 0 0.24 0 0.38 0.02 s0.3 0.06 0.44 0.08 l0 2.9 c-0.1 -0.02 -0.22 -0.04 -0.36 -0.06 s-0.26 -0.04 -0.36 -0.04 c-0.5 0 -0.9 0.06 -1.24 0.16 c-0.56 0.2 -1.06 0.58 -1.24 1.18 c-0.1 0.26 -0.14 0.56 -0.14 0.86 z M24.6 15 c0 1.48 0.74 2.32 2.24 2.32 c0.42 0 0.8 -0.06 1.1 -0.2 c0.56 -0.22 0.94 -0.64 1.14 -1.22 c0.08 -0.28 0.12 -0.58 0.12 -0.9 s-0.04 -0.62 -0.12 -0.9 c-0.22 -0.62 -0.56 -0.96 -1.14 -1.24 c-0.3 -0.12 -0.68 -0.18 -1.1 -0.18 c-1.5 0 -2.24 0.84 -2.24 2.32 z M21.6 6 l3 0 l0 5 c0.68 -0.78 1.6 -1.1 2.62 -1.1 c2.92 0 4.98 2.34 4.98 5.14 c0 3.16 -2.34 5.06 -5.32 5.06 c-3.1 0 -5.28 -2.04 -5.28 -5.1 l0 -9 z M40.58 15 l0 -5 l3 0 l0 9.48 c0 3.18 -2.28 5.12 -5.3 5.12 c-1.06 0 -2.12 -0.1 -3.14 -0.44 l0 -3.08 c0.86 0.46 2.02 0.62 2.98 0.62 c1.08 0 1.94 -0.32 2.34 -1.36 c0.08 -0.28 0.12 -0.58 0.12 -0.88 l0 -0.46 c-0.68 0.76 -1.56 1.1 -2.56 1.1 c-2.84 0 -4.64 -2.44 -4.64 -5.1 l0 -5 l3 0 l0 5 c0 1.36 0.54 2.32 2 2.32 c1.42 0 2.2 -0.94 2.2 -2.32 z"></path></g>
			</g>
		</svg>
	